HIERARCHY
ROOT Hips
{
  OFFSET -31.5692 30.0904 122.763
  CHANNELS 6 Xposition Yposition Zposition Zrotation Xrotation Yrotation
  JOINT LeftUpLeg
  {
    OFFSET 8.64259 1.95398 -2.38835
    CHANNELS 3 Zrotation Xrotation Yrotation
    JOINT LeftLeg
    {
      OFFSET 43.7702 0 0
      CHANNELS 3 Zrotation Xrotation Yrotation
      JOINT LeftFoot
      {
        OFFSET 40.6238 0 0
        CHANNELS 3 Zrotation Xrotation Yrotation
        JOINT LeftToeBase
        {
          OFFSET 12.7242 0 0
          CHANNELS 3 Zrotation Xrotation Yrotation
          End Site
          {
            OFFSET 0 0 0
          }
        }
      }
    }
  }
  JOINT RightUpLeg
  {
    OFFSET -8.2249 1.95398 -2.59336
    CHANNELS 3 Zrotation Xrotation Yrotation
    JOINT RightLeg
    {
      OFFSET 43.5653 0 0
      CHANNELS 3 Zrotation Xrotation Yrotation
      JOINT RightFoot
      {
        OFFSET 40.6238 0 0
        CHANNELS 3 Zrotation Xrotation Yrotation
        JOINT RightToeBase
        {
          OFFSET 12.7242 0 0
          CHANNELS 3 Zrotation Xrotation Yrotation
          End Site
          {
            OFFSET 0 0 0
          }
        }
      }
    }
  }
  JOINT Spine
  {
    OFFSET 0.165834 0.87714 6.61349
    CHANNELS 3 Zrotation Xrotation Yrotation
    JOINT Spine1
    {
      OFFSET 7.38963 1.71661e-005 0
      CHANNELS 3 Zrotation Xrotation Yrotation
      JOINT Spine2
      {
        OFFSET 11.9445 1.14441e-005 0
        CHANNELS 3 Zrotation Xrotation Yrotation
        JOINT Spine3
        {
          OFFSET 14.7254 4.19617e-005 0
          CHANNELS 3 Zrotation Xrotation Yrotation
          JOINT Spine4
          {
            OFFSET 10.9679 0 0
            CHANNELS 3 Zrotation Xrotation Yrotation
            JOINT RightShoulder
            {
              OFFSET 2.46616 -1.6653 3.69651
              CHANNELS 3 Zrotation Xrotation Yrotation
              JOINT RightArm
              {
                OFFSET 13.0012 0 0
                CHANNELS 3 Zrotation Xrotation Yrotation
                JOINT RightForeArm
                {
                  OFFSET 28.7848 1.62311e-005 0
                  CHANNELS 3 Zrotation Xrotation Yrotation
                  JOINT RightHand
                  {
                    OFFSET 26.5688 1.62095e-005 0
                    CHANNELS 3 Zrotation Xrotation Yrotation
                    End Site
                    {
                      OFFSET 0 0 0
                    }
                  }
                }
              }
            }
            JOINT LeftShoulder
            {
              OFFSET 2.38034 -1.29275 -3.7523
              CHANNELS 3 Zrotation Xrotation Yrotation
              JOINT LeftArm
              {
                OFFSET 16.3182 6.07031e-005 0
                CHANNELS 3 Zrotation Xrotation Yrotation
                JOINT LeftForeArm
                {
                  OFFSET 27.0901 0 0
                  CHANNELS 3 Zrotation Xrotation Yrotation
                  JOINT LeftHand
                  {
                    OFFSET 24.5451 1.51738e-005 0
                    CHANNELS 3 Zrotation Xrotation Yrotation
                    End Site
                    {
                      OFFSET 0 0 0
                    }
                  }
                }
              }
            }
            JOINT Neck
            {
              OFFSET 5.0226 -0.0266342 0
              CHANNELS 3 Zrotation Xrotation Yrotation
              JOINT Head
              {
                OFFSET 6.69364 2.86102e-005 0
                CHANNELS 3 Zrotation Xrotation Yrotation
                End Site
                {
                  OFFSET 0 0 0
                }
              }
            }
          }
        }
      }
    }
  }
}
MOTION
Frames:	15
Frame Time:	0.0416667
-13.4052 93.1452 -14.8429 -105.063 44.4238 -81.6929 -172.949 9.80648 87.9587 -51.5567 10.7108 1.13461 85.6957 16.5543 0.0960529 27.2244 -3.02701 6.43807 175.759 35.926 87.815 -89.2864 -6.20131 -4.4481 71.4034 -6.185 -4.03841 17.4101 3.00181 7.55844 0.405261 8.47214 -89.8308 9.93088 0.884624 0.262562 -1.73975 0.89532 0.223358 -24.277 0.764788 0.516295 -4.26436 0.764819 0.516305 90.7429 -31.5441 -104.731 33.0465 5.74654 4.64963 -33.9447 -3.88914 -90.5518 -33.3763 6.16489 -32.9573 -87.3824 -47.7521 82.26 -10.8045 27.2483 4.43716 39.1491 9.69012 -60.8633 18.1989 -11.2304 -56.3061 7.9025 33.0548 1.43624 -15.3687 30.713 17.5802 
-7.28814 93.8905 -8.65709 -104.934 44.4872 -82.7057 -174.213 15.5261 85.7984 -49.4374 11.2894 0.665767 77.8487 11.6758 2.38205 24.9195 -2.88079 2.73941 173.24 27.4535 86.1448 -95.6395 -3.77547 -4.55347 69.749 -5.25491 -4.43841 14.9636 3.74875 8.29556 1.07537 8.40969 -89.8602 10.0549 2.2067 0.0941562 -1.61422 2.2087 -0.00310915 -24.1631 2.07633 0.753293 -4.15044 2.07633 0.753284 91.5926 -27.3112 -104.533 31.0418 9.45546 -1.34536 -32.2643 -2.79984 -92.0908 -33.9258 6.62789 -33.4571 -87.5645 -49.0824 82.2169 -18.5296 25.2419 23.0545 37.8951 4.41841 -62.1453 14.6926 -10.0047 -59.9687 3.39012 32.8203 5.61243 -12.2405 30.5385 16.0399 
-1.42567 96.286 -3.32006 -108.647 44.2965 -79.6059 -174.95 14.2251 86.767 -40.0516 13.2987 0.569892 68.4239 5.23195 2.18805 20.9542 -4.94393 2.73012 171.972 11.6531 84.864 -91.8755 -9.98104 -5.1897 64.4568 -1.88499 -4.84238 13.1204 4.33132 8.74842 1.83787 8.5576 -89.9531 9.76534 3.68482 -0.198876 -1.90044 3.67251 -0.361085 -24.4758 3.57403 0.919211 -4.4631 3.57401 0.919206 91.2599 -24.1216 -106.503 28.6513 13.0522 -4.02264 -31.4663 -2.41942 -93.1513 -32.4644 6.29574 -33.2663 -85.3036 -47.1576 85.3867 -23.2115 25.395 36.4706 35.9615 -0.199485 -63.7698 14.8695 -10.5501 -61.9172 -3.6242 31.0224 6.50548 -10.1364 29.3888 16.9757 
4.84531 99.09 2.31543 -109.726 43.7739 -79.1931 -176.109 11.56 87.1784 -22.9371 15.2889 0.365562 52.0344 -5.42302 -0.682406 19.1092 -4.32837 -0.791429 171.253 -1.20249 84.0994 -80.4553 -18.9434 -6.25416 60.1762 1.02131 -4.19533 13.8257 3.6454 9.91963 2.47828 8.43431 -89.9338 10.0181 4.96906 -0.278906 -1.64339 4.95195 -0.497873 -24.2519 4.8226 1.23098 -4.23929 4.82261 1.23098 92.1544 -19.4337 -106.49 27.8025 11.293 -5.26507 -29.934 -2.24654 -92.9077 -33.9676 6.28549 -31.5365 -84.0214 -43.4797 86.9296 -26.5688 26.1083 47.2832 34.4868 -6.71471 -65.038 10.6726 -8.74125 -66.3043 -9.79089 29.4887 6.6757 -9.18592 28.5 16.2383 
12.1134 99.9228 8.65667 -105.119 42.3818 -83.0168 -177.687 16.0583 86.8682 -16.5412 22.3291 0.657882 53.0535 -4.57278 -2.91347 15.8548 -9.42011 6.13156 171.724 -7.78 86.6587 -68.3623 -19.094 -5.87201 62.0617 -0.13054 -1.70236 16.9462 2.28206 10.4441 2.58398 8.08412 -89.6742 10.7116 5.29593 0.160558 -0.94852 5.29785 -0.0733602 -23.5636 5.00217 1.74879 -3.55094 5.00222 1.74879 93.4346 -15.1571 -105.351 25.657 7.67788 -7.13444 -29.3401 -1.45761 -93.437 -34.9722 6.57486 -31.6496 -85.715 -39.3869 83.451 -28.4554 20.3605 55.1539 36.5947 -8.17558 -64.657 9.36829 -8.66754 -70.7392 -7.91709 29.7017 5.80578 -11.311 28.4322 15.5394 
20.4541 99.1907 15.8019 -98.5545 40.647 -87.5448 -178.57 25.8809 87.1037 -23.552 24.2604 0.513214 55.9458 -2.74318 -1.41549 18.5612 -7.84947 6.19368 173.748 -6.59783 89.8675 -59.8844 -17.1063 -5.04905 65.9696 -2.66726 -2.05791 19.1732 1.55535 10.083 2.36503 7.8126 -89.4779 11.2448 4.94974 0.550527 -0.416746 4.96915 0.331605 -23.0177 4.55499 2.01564 -3.00503 4.55501 2.01564 94.0137 -13.3734 -104.668 22.0999 4.91185 -8.7494 -23.0459 0.249305 -94.8282 -34.94 7.62137 -33.7545 -86.5303 -38.3784 81.8674 -27.1735 19.6468 52.3747 36.2266 -5.46692 -63.4507 12.1556 -10.7739 -71.0037 -2.6716 31.451 8.2705 -11.7108 29.5533 13.8102 
28.8388 97.8409 23.1861 -96.3778 39.2672 -89.504 -176.886 32.4335 86.4369 -38.5392 18.6386 -0.549893 63.3345 1.53694 -1.30531 20.9955 -5.9811 5.15461 175.139 -4.05838 91.134 -54.7822 -17.5868 -5.38052 67.9399 -4.13379 -3.87062 18.5705 1.8055 10.0064 2.10392 7.7659 -89.4283 11.3349 4.4531 0.69356 -0.328539 4.47929 0.496503 -22.9149 4.03845 2.00185 -2.90223 4.03848 2.00185 93.3858 -15.9966 -105.076 21.0396 2.80512 -5.49103 -24.6327 1.10715 -96.4546 -33.2444 7.27046 -34.5411 -86.4747 -40.9969 82.4787 -22.636 21.0184 41.4267 35.0648 -2.90289 -63.9224 12.4533 -10.4026 -68.2944 -0.764736 33.5651 10.6356 -12.6382 31.1315 13.5564 
37.0462 95.7596 30.8627 -96.8781 39.5633 -90.5601 -172.563 35.8371 84.4074 -57.9895 13.2244 -1.43268 72.0782 6.5376 0.325634 22.0683 -5.38365 5.11264 175.828 -1.98289 89.2921 -51.5764 -17.4422 -6.58964 71.6335 -7.45601 -6.07787 32.4537 -3.23248 9.75367 1.78418 7.95418 -89.3527 10.9534 3.85174 0.92225 -0.712027 3.88858 0.75159 -23.2821 3.39635 2.03833 -3.26944 3.39634 2.03833 92.5702 -18.9496 -105.72 22.3986 1.59062 -1.11158 -27.5039 0.375093 -95.176 -36.5426 6.60832 -30.8591 -87.5895 -44.5191 81.3287 -18.271 18.3127 29.5761 30.4708 0.0749661 -62.4135 14.4498 -10.8645 -64.4703 0.316758 35.9601 12.4614 -14.1551 33.0532 13.5451 
45.3661 93.6276 38.5457 -97.1418 40.8711 -91.7677 -166.958 36.3186 82.8862 -75.2357 10.2241 -0.81529 74.6128 7.60292 1.86822 21.4207 -5.27239 4.06194 176.34 3.40023 89.5212 -53.7452 -16.7449 -7.65481 82.5404 -15.8649 -4.81794 38.9585 -5.18489 5.97465 1.37436 8.05244 -89.3701 10.7563 3.0272 0.971822 -0.911369 3.06702 0.837536 -23.4656 2.59516 1.83713 -3.45299 2.59512 1.83712 92.7916 -20.6133 -104.496 26.1976 -1.71366 3.22554 -26.0197 -1.45505 -91.59 -34.6233 7.35518 -34.5259 -87.7775 -51.0512 82.2416 -10.7342 15.2944 16.5897 27.8507 2.83517 -62.164 13.7609 -10.4622 -64.692 -2.4133 37.936 19.2033 -10.4624 35.0881 11.2325 
53.461 91.777 45.5287 -94.4119 41.3914 -91.7658 -164.149 36.2492 86.0296 -88.5613 12.2489 1.2471 72.4844 6.61318 3.63507 22.4061 -3.93665 2.13497 177.485 15.0696 90.1179 -59.3061 -12.9679 -5.93401 87.3094 -18.3078 -2.15381 32.5556 -3.18425 9.19402 0.917471 7.91796 -89.7014 11.0355 1.96485 0.405442 -0.634004 1.98079 0.318526 -23.1786 1.75214 0.977376 -3.16596 1.75213 0.977372 92.9462 -21.8379 -103.644 32.3192 -4.47276 10.7069 -36.4003 -4.79532 -89.9919 -36.0392 4.66465 -26.6133 -85.6423 -57.0061 86.1964 -4.47371 10.2039 -0.237146 32.7072 6.98206 -63.6045 13.1537 -10.0701 -64.6353 -1.5145 40.1169 24.6504 -9.39767 36.6826 8.74216 
60.3759 91.2948 51.172 -94.4332 40.0589 -89.6947 -166.469 28.9802 92.3301 -94.2402 17.1021 3.1039 68.5657 4.67025 4.78468 22.9229 -2.38257 -1.07767 177.483 23.5897 92.1409 -62.4301 -14.6694 -4.36724 81.8988 -14.7933 -3.37329 29.3497 -1.87414 8.46028 0.302222 7.94703 -89.8767 10.9787 0.658679 0.181411 -0.692115 0.666025 0.152236 -23.2281 0.573709 0.370986 -3.21541 0.5737 0.370987 93.8206 -22.9944 -101.235 39.5121 -2.16861 21.0284 -33.6705 -7.13203 -86.6703 -35.8038 5.36046 -28.7579 -84.671 -55.9763 87.433 -5.42416 4.98265 -13.254 34.115 6.58057 -64.9268 10.5379 -8.64178 -66.2865 1.09296 41.6235 23.7824 -11.3675 37.6701 8.55758 
66.2365 92.1046 55.9771 -99.5594 38.0882 -86.0032 -168.851 12.4194 98.1818 -89.777 23.2497 4.6079 64.994 2.9909 5.84958 22.9398 -2.37946 -1.07476 177.277 23.505 92.129 -59.39 -16.0894 -3.96301 77.3782 -11.5793 -3.6754 26.4295 -0.787599 8.51006 -0.513265 8.26181 -89.919 10.3521 -0.985424 0.24636 -1.31856 -0.973591 0.289476 -23.8565 -1.01391 -0.0612156 -3.84389 -1.0139 -0.0612231 94.0952 -23.2152 -100.536 44.593 -1.3727 31.6607 -30.0654 -8.33803 -83.5708 -33.8736 6.24744 -32.8563 -86.6716 -52.5415 84.1217 -6.84102 1.2004 -20.6268 32.717 5.12217 -65.3094 10.5041 -9.09497 -68.9916 -4.65994 39.7049 23.1566 -11.7721 36.8111 11.965 
72.2344 94.2949 61.0485 -102.985 36.5144 -82.5458 -170.277 -2.57833 100.572 -77.4388 25.596 6.96557 61.3413 0.331859 3.81548 26.4744 -1.13785 0.13477 177.936 21.5741 92.8552 -49.7578 -16.6484 -3.55248 69.4013 -5.85117 -2.91139 23.8427 0.0359739 9.19567 -1.26568 8.43162 -89.9306 10.0159 -2.49067 0.343326 -1.65277 -2.47314 0.452672 -24.2066 -2.47864 -0.421561 -4.194 -2.47864 -0.421567 94.4499 -23.5946 -99.6284 45.9453 -1.0687 39.467 -28.844 -9.47919 -81.7617 -30.8231 6.3025 -36.0235 -86.5301 -45.3117 83.1574 -6.1808 -0.277708 -26.1756 33.9112 5.46557 -66.543 13.4405 -10.4042 -65.2938 -10.1457 37.3293 20.8424 -12.9031 35.3383 15.0697 
78.8808 97.2611 67.2621 -103.604 37.0526 -81.5378 -171.637 -12.8044 98.2378 -63.8693 28.173 8.89546 61.4692 0.475447 2.75611 27.8965 -0.649414 0.678868 179.523 19.4294 92.3736 -33.4494 -19.6314 -4.02143 56.8323 2.34413 0.648705 20.0772 1.86051 7.79384 -1.67701 8.41565 -89.8853 10.0528 -3.28972 0.500949 -1.61419 -3.26448 0.645388 -24.1824 -3.28801 -0.512011 -4.16977 -3.28802 -0.512018 93.3966 -24.2606 -101.749 46.3984 -0.371812 45.901 -25.3765 -8.50083 -80.9818 -27.691 6.50776 -39.6823 -85.6388 -37.4857 83.2459 -5.42724 -0.774012 -29.0225 35.6094 7.64821 -67.499 15.6011 -11.1655 -62.4045 -15.0662 33.9532 18.777 -13.2295 32.8141 16.4724 
85.5581 99.0719 74.3352 -101.11 38.1559 -82.4591 -173.216 -15.8916 95.1891 -52.9516 28.0927 8.93221 64.7178 3.01909 3.82372 23.3325 -3.31346 1.79319 -179.933 17.9238 91.3554 -18.9134 -26.564 -4.52351 58.3334 0.550748 0.506249 18.3548 3.00331 6.28566 -1.65328 8.1007 -90.03 10.6794 -3.30631 0.242218 -0.987365 -3.29243 0.387653 -23.5551 -3.22606 -0.763718 -3.54245 -3.22609 -0.763729 91.6821 -24.0279 -105.606 48.0937 2.53984 50.1101 -28.7665 -10.2569 -80.1507 -28.3791 6.47595 -39.6447 -84.8416 -34.0641 84.0429 -2.00294 2.06971 -32.0157 33.1526 7.47542 -64.9633 16.7148 -12.0121 -62.813 -18.4714 29.5904 16.8774 -13.5869 29.094 15.0212 
